<svg width="200px"  height="200px"  xmlns="http://www.w3.org/2000/svg" viewBox="0 0 100 100" preserveAspectRatio="xMidYMid" class="lds-wedges" style="background-image: none; background-position: initial initial; background-repeat: initial initial;"><g transform="translate(50,50)"><g ng-attr-transform="scale({{config.scale}})" transform="scale(0.7)"><g transform="translate(-50,-50)"><g><animateTransform attributeName="transform" type="rotate" calcMode="linear" values="0 50 50;360 50 50" keyTimes="0;1" dur="1.15s" begin="0s" repeatCount="indefinite"></animateTransform><path ng-attr-fill-opacity="{{config.opacity}}" ng-attr-fill="{{config.c1}}" d="M50 50L50 0A50 50 0 0 1 100 50Z" fill-opacity="0.8" fill="#ecf4da"></path></g><g><animateTransform attributeName="transform" type="rotate" calcMode="linear" values="0 50 50;360 50 50" keyTimes="0;1" dur="1.5333333333333332s" begin="0s" repeatCount="indefinite"></animateTransform><path ng-attr-fill-opacity="{{config.opacity}}" ng-attr-fill="{{config.c2}}" d="M50 50L50 0A50 50 0 0 1 100 50Z" transform="rotate(90 50 50)" fill-opacity="0.8" fill="#92a5a9"></path></g><g><animateTransform attributeName="transform" type="rotate" calcMode="linear" values="0 50 50;360 50 50" keyTimes="0;1" dur="2.3s" begin="0s" repeatCount="indefinite"></animateTransform><path ng-attr-fill-opacity="{{config.opacity}}" ng-attr-fill="{{config.c3}}" d="M50 50L50 0A50 50 0 0 1 100 50Z" transform="rotate(180 50 50)" fill-opacity="0.8" fill="#a1d3e0"></path></g><g><animateTransform attributeName="transform" type="rotate" calcMode="linear" values="0 50 50;360 50 50" keyTimes="0;1" dur="4.6s" begin="0s" repeatCount="indefinite"></animateTransform><path ng-attr-fill-opacity="{{config.opacity}}" ng-attr-fill="{{config.c4}}" d="M50 50L50 0A50 50 0 0 1 100 50Z" transform="rotate(270 50 50)" fill-opacity="0.8" fill="#ecea37"></path></g></g></g></g></svg>